<svg xmlns="http://www.w3.org/2000/svg"  viewBox="0 0 48 48" width="50px" height="50px"><path fill="#b3e5fc" d="M37.5,20c-0.5,0-1,0.1-1.5,0.1C35.5,13.9,30.3,9,24,9c-5.2,0-9.7,3.4-11.3,8c-0.2,0-0.5,0-0.7,0 C6.5,17,2,21.5,2,27s4.5,10,10,10h25v0c0.2,0,0.3,0,0.5,0c4.7,0,8.5-3.8,8.5-8.5S42.2,20,37.5,20z"/><line x1="24" x2="24" y1="17" y2="27" fill="none" stroke="#3f51b5" stroke-miterlimit="10" stroke-width="4"/><polygon fill="none" stroke="#3f51b5" stroke-miterlimit="10" stroke-width="3" points="21.5,26.5 24,29.5 26.5,26.5"/></svg>